<?xml version="1.0" encoding="UTF-8"?>
<svg id="a" data-name="Layer 1" xmlns="http://www.w3.org/2000/svg" viewBox="0 0 1000 1000">
  <circle cx="500" cy="500" r="500" fill="#1e1e1e"/>
  <g>
    <path d="m322.53,748.8c15.57-14.9,26.96-33.63,34.19-56.19,4.96-15.34,8.57-33.73,10.83-55.18,2.25-21.43,3.38-51.56,3.38-90.38V236.3l-60.93-9.48v-41.97h216.65v41.97l-56.87,8.8v266.07c0,48.3-.57,85.64-1.69,112.05-1.13,26.4-3.5,47.51-7.11,63.3-9.48,36.56-28.89,66.91-58.22,91.06-29.34,24.14-65.45,39.83-108.32,47.05l-22.34-35.2c18.05-5.87,34.87-16.25,50.44-31.14Z" fill="#e1e1e1"/>
    <path d="m424.84,691.9c-35.94-40.52-53.9-95.92-53.9-166.21,0-46.31,9.48-86.74,28.45-121.28,18.96-34.53,45.01-61.19,78.16-79.96,33.14-18.76,70.67-28.15,112.6-28.15,17.57,0,34.53,1.1,50.91,3.29,16.37,2.2,35.73,5.09,58.1,8.69,16.77,2.8,25.95,4.19,27.55,4.19l-6.59,123.38h-55.1l-18.57-85.65c-4.4-4.39-11.98-7.98-22.76-10.78-10.78-2.79-24.56-4.19-41.33-4.19-33.94,0-61.19,15.68-81.76,47.02-20.57,31.35-30.84,76.77-30.84,136.26s9.78,104.42,29.35,140.75c19.56,36.34,48.11,54.5,85.65,54.5,17.97,0,31.84-1.69,41.63-5.09,9.78-3.39,18.06-8.28,24.86-14.67l26.35-61.69,50.31,4.79-11.98,92.84c-8.39.8-16.68,2.3-24.86,4.49-8.19,2.2-13.28,3.5-15.27,3.89-15.97,4.4-30.84,7.88-44.62,10.48-13.78,2.59-30.65,3.89-50.61,3.89-67.89,0-119.79-20.26-155.72-60.79Z" fill="#e1e1e1"/>
  </g>
</svg>