<?xml version="1.0" encoding="UTF-8"?>
<svg id="a" data-name="Layer 1" xmlns="http://www.w3.org/2000/svg" viewBox="0 0 1000 1000">
  <circle cx="500" cy="500" r="500" fill="#1e1e1e"/>
  <g>
    <path d="m315.49,728.7c14.31-13.69,24.78-30.91,31.43-51.65,4.56-14.1,7.88-31.01,9.96-50.72,2.07-19.7,3.11-47.39,3.11-83.08v-285.64l-56.01-8.71v-38.58h199.14v38.58l-52.27,8.09v244.57c0,44.4-.53,78.72-1.56,102.99-1.04,24.27-3.22,43.67-6.53,58.19-8.71,33.61-26.55,61.5-53.52,83.7-26.97,22.19-60.16,36.61-99.57,43.25l-20.54-32.36c16.59-5.4,32.05-14.94,46.36-28.63Z" fill="#e1e1e1"/>
    <path d="m415.99,691.55c-37.34-42.1-56.01-99.67-56.01-172.69,0-48.12,9.85-90.13,29.56-126.02,19.7-35.88,46.77-63.57,81.21-83.08,34.43-19.5,73.43-29.25,116.99-29.25,18.25,0,35.88,1.15,52.9,3.42,17.01,2.29,37.12,5.29,60.36,9.02,17.43,2.91,26.96,4.36,28.63,4.36l-6.85,128.2h-57.25l-19.29-88.99c-4.57-4.56-12.45-8.29-23.65-11.2-11.2-2.9-25.51-4.36-42.94-4.36-35.27,0-63.58,16.29-84.95,48.85-21.37,32.57-32.05,79.76-32.05,141.58s10.16,108.5,30.49,146.25c20.32,37.76,49.99,56.63,88.99,56.63,18.67,0,33.08-1.76,43.25-5.29,10.16-3.52,18.77-8.61,25.83-15.25l27.38-64.1,52.27,4.98-12.45,96.46c-8.71.84-17.33,2.39-25.83,4.67-8.51,2.29-13.8,3.64-15.87,4.05-16.6,4.57-32.05,8.19-46.36,10.89-14.31,2.69-31.85,4.05-52.59,4.05-70.54,0-124.46-21.05-161.8-63.17Z" fill="#e1e1e1"/>
  </g>
</svg>